<svg width="66" height="31" viewBox="0 0 66 31" fill="none" xmlns="http://www.w3.org/2000/svg">
<path d="M37.7418 2.95097C39.1126 3.86798 40.4519 4.76259 41.789 5.65572C42.0072 5.40561 41.9457 5.18503 41.9462 4.98201C41.9487 3.8684 41.9365 2.75475 41.9398 1.64115C41.9427 0.617236 42.2267 0.345022 43.2446 0.350321C44.4597 0.356646 45.6748 0.357403 46.8899 0.362019C47.8584 0.365703 48.1751 0.664719 48.1775 1.63176C48.1839 4.14183 48.1892 6.65204 48.1653 9.16192C48.1604 9.67273 48.2954 10.0137 48.7468 10.3001C49.7386 10.9294 50.6948 11.6136 51.6653 12.2757C51.7536 12.3359 51.8435 12.3942 51.9274 12.4599C52.4014 12.8313 52.5227 13.3032 52.265 13.7622C52.0216 14.1956 51.5104 14.3386 50.9474 14.1145C50.4788 13.928 50.0909 13.6077 49.6749 13.334C49.5025 13.2206 49.3589 13.0476 49.1184 13.0372C48.9936 13.2558 49.0452 13.4893 49.0446 13.711C49.0351 17.4231 49.0311 21.1352 49.0259 24.8473C49.0259 24.9004 49.027 24.9534 49.0265 25.0064C49.016 26.23 49.016 26.2301 50.2215 26.4019C51.7022 26.6128 53.1828 26.8236 54.7892 27.0524C54.7011 26.335 54.7483 25.6598 54.7621 24.9845C54.7762 24.2963 54.7058 23.606 54.7282 22.9183C54.7445 22.4151 54.5722 22.0323 54.2167 21.6948C53.9857 21.4754 53.7536 21.248 53.5704 20.9905C53.2837 20.5878 53.3424 20.0201 53.6891 19.7304C54.0813 19.4025 54.4796 19.4955 54.8659 19.7675C55.0528 19.8991 55.1957 20.0952 55.4414 20.1566C55.6871 20.0893 55.7108 19.8528 55.8009 19.6708C56.0205 19.2272 56.1904 18.755 56.5047 18.3645C56.8745 17.905 57.4215 17.8124 57.8791 18.1076C58.3365 18.4027 58.4449 18.8552 58.1575 19.4034C57.8122 20.062 57.4751 20.7281 57.0782 21.3562C56.6906 21.9696 56.5714 22.6186 56.5818 23.3233C56.598 24.4177 56.5828 25.5126 56.5828 26.6072C56.5829 27.3647 56.5845 27.3661 57.3181 27.4994C59.7756 27.9458 62.2254 28.4263 64.6395 29.0713C65.4026 29.2752 65.6221 29.6085 65.4393 30.3374C65.2976 30.9024 64.886 31.1173 64.1747 30.9331C61.8772 30.3381 59.5539 29.8657 57.2189 29.4421C53.8838 28.837 50.5302 28.368 47.1621 27.9787C41.2062 27.2903 35.2309 27.1212 29.2442 27.2532C26.1932 27.3205 23.1514 27.5497 20.1123 27.8482C14.6538 28.3843 9.25159 29.2425 3.90056 30.4265C3.13487 30.5959 2.37971 30.8134 1.61182 30.9712C1.04101 31.0886 0.657879 30.8399 0.553894 30.3557C0.399648 29.6375 0.566871 29.2814 1.1804 29.1137C3.62504 28.4453 6.11059 27.957 8.60437 27.5127C9.0531 27.4327 9.18071 27.2644 9.16108 26.8203C9.11819 25.8498 9.12717 24.8762 9.14392 23.9043C9.15058 23.5182 9.00938 23.2666 8.66765 23.0989C8.46005 22.997 8.25542 22.8846 8.06416 22.7556C7.49584 22.3723 7.33138 21.7105 7.67586 21.2376C7.9876 20.8097 8.68709 20.7713 9.22196 21.1572C9.36466 21.2602 9.49748 21.3766 9.65124 21.4999C10.1264 21.2109 10.3034 20.7014 10.627 20.3144C10.9922 19.8778 11.4899 19.7311 11.9554 19.9557C12.4457 20.1922 12.6252 20.6916 12.3368 21.2068C12.0261 21.7618 11.6667 22.2921 11.3007 22.814C11.0988 23.1019 10.9858 23.3868 10.9924 23.7444C11.0099 24.6986 11.0066 25.6535 10.9911 26.6078C10.985 26.9845 11.1147 27.1077 11.5013 27.0488C13.1224 26.8014 14.7454 26.5649 16.3709 26.3483C16.7016 26.3042 16.8415 26.1948 16.8409 25.8568C16.8334 21.6674 16.8343 17.4781 16.8313 13.2887C16.8313 13.2379 16.8082 13.1871 16.7934 13.1258C16.5208 13.0442 16.3698 13.2608 16.187 13.3741C15.8243 13.599 15.4903 13.8732 15.1155 14.0741C14.5764 14.363 14.0639 14.2425 13.7891 13.8146C13.4815 13.3359 13.5799 12.7712 14.0928 12.4187C15.5744 11.4003 17.0653 10.3947 18.5635 9.40035C23.1621 6.34851 27.7691 3.30898 32.363 0.250196C32.8464 -0.0717024 33.2412 -0.0923249 33.7242 0.242783C35.0403 1.15583 36.38 2.03561 37.7418 2.95097ZM38.4852 5.7781C36.8656 4.70916 35.2324 3.65943 33.635 2.55882C33.1921 2.25362 32.8823 2.26831 32.4538 2.55283C28.0491 5.47738 23.6363 8.38999 19.2164 11.292C18.8238 11.5498 18.7056 11.8473 18.7073 12.2994C18.7241 16.6471 18.7186 20.9949 18.72 25.3427C18.7203 26.0504 18.7234 26.0602 19.4404 26.0069C21.5936 25.8469 23.7464 25.6819 25.8989 25.513C26.6046 25.4577 26.6034 25.4495 26.6023 24.7285C26.5992 22.5723 26.5716 20.4157 26.6003 18.2599C26.6338 15.7353 27.8294 13.8495 30.0676 12.6977C32.235 11.5824 34.4352 11.7219 36.4841 13.0326C38.4874 14.314 39.3879 16.2182 39.3878 18.5617C39.3876 20.6649 39.4103 22.7681 39.398 24.8712C39.3954 25.3262 39.5395 25.4666 40.0071 25.4959C42.1797 25.6322 44.3507 25.7999 46.5193 25.9897C46.9876 26.0307 47.1214 25.8915 47.1126 25.453C47.0947 24.5533 47.1112 23.6529 47.116 22.7527C47.1345 19.2186 47.154 15.6845 47.1733 12.1503C47.1747 11.8856 47.2091 11.6088 46.9166 11.4503C46.3149 11.1244 46.2149 10.5972 46.2209 9.96686C46.2434 7.59879 46.2199 5.23032 46.2324 2.86211C46.2345 2.45229 46.1064 2.27933 45.6794 2.30921C45.2883 2.33658 44.8907 2.34637 44.5014 2.30855C43.9708 2.25699 43.7803 2.42723 43.7943 2.98053C43.8306 4.41117 43.805 5.84338 43.802 7.27496C43.801 7.73669 43.7086 8.16436 43.2518 8.40289C42.8181 8.62936 42.464 8.40827 42.1141 8.17618C40.9273 7.38892 39.738 6.60512 38.4852 5.7781ZM33.9489 25.2177C34.0067 25.3207 34.1 25.3643 34.214 25.3648C35.1954 25.3686 36.1768 25.3699 37.1581 25.3749C37.4785 25.3766 37.5353 25.1793 37.5346 24.9201C37.5302 23.3314 37.5252 21.7427 37.53 20.1541C37.5309 19.8386 37.4016 19.7096 37.0832 19.713C36.1911 19.7226 35.2986 19.7285 34.4067 19.7127C34.0292 19.706 33.8998 19.8668 33.9063 20.2189C33.9171 20.8011 33.904 21.3838 33.9057 21.9663C33.9087 23.0232 33.9153 24.0801 33.9489 25.2177ZM29.3696 25.3779C30.0994 25.3553 30.8293 25.3144 31.5591 25.3171C31.9681 25.3186 32.0735 25.1436 32.0697 24.7712C32.0546 23.2907 32.0482 21.8098 32.0679 20.3293C32.0737 19.8958 31.9189 19.7157 31.4866 19.7209C30.6671 19.7308 29.8473 19.7297 29.0277 19.7215C28.5497 19.7168 28.3555 19.9272 28.3862 20.4035C28.4835 21.9174 28.4502 23.4336 28.4146 24.9485C28.4068 25.2816 28.5229 25.4021 28.8407 25.3817C28.9827 25.3726 29.1257 25.379 29.3696 25.3779ZM32.0575 16.5497C32.0555 15.862 32.0357 15.1737 32.0579 14.4867C32.0725 14.0355 31.9322 13.9188 31.4956 14.0841C29.8784 14.696 28.9432 15.8777 28.5155 17.5005C28.4276 17.834 28.5621 17.9543 28.8909 17.9494C29.5147 17.9399 30.1387 17.9445 30.7626 17.9437C32.062 17.9422 32.062 17.9423 32.0575 16.5497ZM36.0047 17.9489C36.3429 17.9492 36.6816 17.9383 37.0191 17.9528C37.4185 17.9699 37.5622 17.8525 37.451 17.4243C37.0244 15.7808 36.0081 14.6722 34.4241 14.0561C34.2804 14.0003 34.1323 13.9161 33.9324 14.0378C33.9324 15.211 33.9327 16.4041 33.9321 17.5973C33.932 17.8783 34.0995 17.9522 34.3496 17.9496C34.8657 17.9443 35.3819 17.9485 36.0047 17.9489Z" fill="white"/>
</svg>
