<svg width="127" height="61" viewBox="0 0 127 61" fill="none" xmlns="http://www.w3.org/2000/svg">
<path d="M72.7648 5.80674C75.443 7.61118 78.0599 9.37155 80.6724 11.129C81.0987 10.6368 80.9786 10.2028 80.9795 9.80331C80.9843 7.61201 80.9606 5.42064 80.9669 3.22935C80.9728 1.21456 81.5275 0.678914 83.5164 0.689341C85.8904 0.701787 88.2646 0.703278 90.6387 0.71236C92.5311 0.719609 93.1497 1.308 93.1545 3.21088C93.167 8.15005 93.1773 13.0895 93.1306 18.0283C93.121 19.0334 93.3849 19.7044 94.2668 20.2679C96.2046 21.5063 98.0729 22.8527 99.9692 24.1555C100.142 24.2739 100.317 24.3885 100.481 24.5178C101.407 25.2486 101.644 26.1772 101.141 27.0805C100.665 27.9333 99.6664 28.2147 98.5664 27.7737C97.6509 27.4067 96.893 26.7764 96.0803 26.2379C95.7433 26.0147 95.4627 25.6743 94.9928 25.6539C94.7491 26.084 94.8497 26.5434 94.8486 26.9798C94.8301 34.2842 94.8223 41.5887 94.8122 48.8932C94.8121 48.9975 94.8143 49.1019 94.8134 49.2062C94.7928 51.6139 94.7927 51.6141 97.1482 51.9521C100.041 52.3672 102.934 52.7819 106.073 53.232C105.901 51.8204 105.993 50.4918 106.02 49.1631C106.047 47.8088 105.91 46.4505 105.953 45.0974C105.985 44.1072 105.649 43.3539 104.954 42.6897C104.503 42.258 104.049 41.8106 103.691 41.3039C103.131 40.5114 103.246 39.3945 103.923 38.8243C104.69 38.1791 105.468 38.3622 106.223 38.8974C106.588 39.1564 106.867 39.5423 107.347 39.6629C107.827 39.5306 107.873 39.0652 108.049 38.7071C108.479 37.8341 108.81 36.905 109.424 36.1366C110.147 35.2324 111.216 35.0503 112.11 35.6311C113.004 36.2118 113.215 37.1021 112.654 38.1809C111.979 39.4769 111.321 40.7875 110.545 42.0234C109.788 43.2305 109.555 44.5077 109.575 45.8942C109.607 48.0477 109.577 50.2021 109.577 52.3561C109.577 53.8466 109.58 53.8495 111.014 54.1117C115.815 54.9902 120.602 55.9355 125.319 57.2048C126.81 57.606 127.239 58.2618 126.881 59.6961C126.604 60.8079 125.8 61.2307 124.411 60.8683C119.922 59.6976 115.382 58.768 110.82 57.9344C104.304 56.7438 97.7513 55.821 91.1706 55.0549C79.5337 53.7002 67.8589 53.3675 56.1618 53.6273C50.2007 53.7596 44.2574 54.2107 38.3195 54.798C27.6544 55.853 17.0993 57.5417 6.64418 59.8714C5.14812 60.2048 3.67267 60.6328 2.17233 60.9434C1.05704 61.1742 0.30847 60.685 0.1053 59.7323C-0.196072 58.319 0.130656 57.6182 1.3294 57.2882C6.10585 55.9731 10.9622 55.0122 15.8347 54.1379C16.7114 53.9805 16.9608 53.6494 16.9224 52.7754C16.8386 50.8657 16.8562 48.9499 16.8889 47.0375C16.9019 46.2778 16.626 45.7827 15.9583 45.4527C15.5527 45.2522 15.1529 45.0311 14.7792 44.7772C13.6688 44.023 13.3475 42.7206 14.0205 41.7902C14.6296 40.9481 15.9963 40.8725 17.0414 41.632C17.3202 41.8346 17.5797 42.0636 17.8801 42.3063C18.8085 41.7376 19.1544 40.7349 19.7867 39.9735C20.5001 39.1143 21.4725 38.8258 22.3821 39.2676C23.3401 39.733 23.6908 40.7157 23.1273 41.7295C22.5202 42.8216 21.8181 43.8651 21.1029 44.8921C20.7085 45.4586 20.4876 46.0192 20.5005 46.7228C20.5348 48.6004 20.5282 50.4795 20.4979 52.3573C20.486 53.0985 20.7395 53.341 21.4949 53.225C24.6622 52.7382 27.8332 52.2728 31.0093 51.8466C31.6555 51.7598 31.9288 51.5447 31.9276 50.8795C31.9129 42.6359 31.9147 34.3923 31.9089 26.1487C31.9088 26.0487 31.8637 25.9487 31.8347 25.8281C31.3021 25.6676 31.0071 26.0939 30.6499 26.3169C29.9412 26.7593 29.2888 27.2988 28.5565 27.6941C27.5031 28.2627 26.5018 28.0255 25.9648 27.1836C25.3639 26.2416 25.5561 25.1305 26.5583 24.4367C29.4531 22.4328 32.366 20.454 35.2934 18.4975C44.2783 12.4922 53.2796 6.51122 62.2553 0.492321C63.1999 -0.141092 63.9712 -0.181672 64.915 0.477734C67.4865 2.27438 70.1041 4.00556 72.7648 5.80674ZM74.2173 11.3698C71.0527 9.2664 67.8618 7.20081 64.7407 5.03511C63.8753 4.43453 63.27 4.46345 62.4328 5.02331C53.8267 10.7781 45.2048 16.5093 36.569 22.2198C35.8018 22.727 35.5709 23.3124 35.5743 24.202C35.6071 32.7572 35.5963 41.3126 35.5991 49.8679C35.5996 51.2605 35.6057 51.2798 37.0067 51.1749C41.2137 50.8599 45.4199 50.5353 49.6256 50.2031C51.0044 50.0941 51.002 50.0781 50.9999 48.6593C50.9938 44.4164 50.9399 40.1729 50.9959 35.9309C51.0614 30.9629 53.3975 27.2522 57.7705 24.9858C62.0053 22.7912 66.3041 23.0657 70.3074 25.6447C74.2215 28.1662 75.981 31.9133 75.9807 36.5247C75.9805 40.6632 76.0248 44.8018 76.0008 48.9401C75.9956 49.8354 76.2771 50.1117 77.1908 50.1694C81.4358 50.4376 85.6775 50.7676 89.9146 51.1411C90.8297 51.2218 91.091 50.9478 91.0739 50.085C91.0388 48.3145 91.0712 46.5427 91.0804 44.7715C91.1167 37.8172 91.1548 30.863 91.1924 23.9087C91.1952 23.3878 91.2623 22.8431 90.691 22.5313C89.5153 21.8899 89.3198 20.8525 89.3315 19.6122C89.3755 14.9525 89.3297 10.2919 89.354 5.63189C89.3582 4.82548 89.108 4.48514 88.2736 4.54393C87.5095 4.59779 86.7325 4.61705 85.972 4.54262C84.9352 4.44118 84.563 4.77616 84.5904 5.86492C84.6613 8.68005 84.6113 11.4983 84.6054 14.3152C84.6035 15.2238 84.4229 16.0654 83.5304 16.5347C82.6831 16.9803 81.9912 16.5453 81.3076 16.0886C78.9886 14.5395 76.6651 12.9972 74.2173 11.3698ZM65.354 49.6219C65.4669 49.8246 65.6492 49.9105 65.872 49.9113C67.7894 49.9189 69.7069 49.9213 71.6243 49.9313C72.2503 49.9346 72.3612 49.5465 72.3598 49.0363C72.3513 45.9102 72.3416 42.7841 72.3509 39.658C72.3527 39.0372 72.1 38.7835 71.4779 38.7902C69.7348 38.809 67.9911 38.8206 66.2485 38.7895C65.5109 38.7764 65.258 39.0927 65.2708 39.7855C65.2919 40.9313 65.2662 42.0778 65.2695 43.2239C65.2755 45.3037 65.2883 47.3835 65.354 49.6219ZM56.4067 49.9372C57.8327 49.8926 59.2588 49.8121 60.6847 49.8174C61.4839 49.8204 61.6897 49.4761 61.6823 48.7434C61.6528 45.8301 61.6403 42.916 61.6788 40.0029C61.6901 39.1498 61.3876 38.7955 60.5431 38.8057C58.9419 38.8252 57.3401 38.823 55.7388 38.8069C54.8048 38.7975 54.4254 39.2115 54.4853 40.1489C54.6755 43.1278 54.6104 46.1112 54.5409 49.0922C54.5256 49.7476 54.7524 49.9849 55.3733 49.9447C55.6507 49.9268 55.9302 49.9394 56.4067 49.9372ZM61.6585 32.5655C61.6546 31.2123 61.6158 29.8579 61.6593 28.5062C61.6879 27.6183 61.4136 27.3887 60.5605 27.7138C57.4008 28.9179 55.5736 31.2432 54.7379 34.4365C54.5662 35.0926 54.8289 35.3295 55.4715 35.3197C56.6903 35.3011 57.9095 35.3101 59.1284 35.3086C61.6672 35.3056 61.6672 35.3058 61.6585 32.5655ZM69.3707 35.3188C70.0314 35.3194 70.6932 35.2979 71.3528 35.3264C72.1331 35.3601 72.4138 35.1291 72.1967 34.2865C71.3632 31.0525 69.3774 28.8712 66.2825 27.6589C66.0018 27.5489 65.7122 27.3834 65.3217 27.6229C65.3217 29.9314 65.3224 32.2791 65.3212 34.6269C65.3209 35.1799 65.6483 35.3252 66.1369 35.3202C67.1453 35.3098 68.154 35.318 69.3707 35.3188Z" fill="white"/>
</svg>
