<svg width="15" height="16" viewBox="0 0 15 16" fill="none" xmlns="http://www.w3.org/2000/svg">
<path d="M13.7504 11.0751V12.9501C13.7511 13.1241 13.7154 13.2964 13.6457 13.4559C13.576 13.6154 13.4737 13.7586 13.3454 13.8762C13.2172 13.9939 13.0657 14.0835 12.9009 14.1393C12.736 14.195 12.5612 14.2157 12.3879 14.2001C10.4647 13.9911 8.61726 13.3339 6.99414 12.2813C5.48403 11.3217 4.20372 10.0414 3.24414 8.53131C2.18787 6.90081 1.53054 5.04443 1.32539 3.11256C1.30977 2.93973 1.33031 2.76554 1.3857 2.60108C1.44109 2.43662 1.53012 2.28549 1.64711 2.15732C1.76411 2.02916 1.90651 1.92675 2.06525 1.85664C2.224 1.78652 2.3956 1.75022 2.56914 1.75006H4.44414C4.74745 1.74708 5.04151 1.85448 5.27149 2.05227C5.50147 2.25005 5.65168 2.52471 5.69414 2.82506C5.77327 3.4251 5.92004 4.01426 6.13164 4.58131C6.21573 4.80501 6.23392 5.04813 6.18408 5.28186C6.13423 5.51559 6.01842 5.73013 5.85039 5.90006L5.05664 6.69381C5.94636 8.25853 7.24192 9.55409 8.80664 10.4438L9.60039 9.65006C9.77032 9.48202 9.98486 9.36622 10.2186 9.31637C10.4523 9.26652 10.6954 9.28472 10.9191 9.36881C11.4862 9.5804 12.0753 9.72717 12.6754 9.80631C12.979 9.84914 13.2563 10.0021 13.4545 10.236C13.6527 10.4699 13.758 10.7685 13.7504 11.0751Z" stroke="#424242" stroke-linecap="round" stroke-linejoin="round"/>
</svg>
