<svg width="25" height="25" viewBox="0 0 25 25" fill="none" xmlns="http://www.w3.org/2000/svg">
<path d="M20.0844 18.979C20.157 19.0515 20.2146 19.1377 20.2539 19.2325C20.2932 19.3274 20.3134 19.429 20.3134 19.5317C20.3134 19.6343 20.2932 19.736 20.2539 19.8308C20.2146 19.9257 20.157 20.0118 20.0844 20.0844C20.0118 20.157 19.9257 20.2146 19.8308 20.2539C19.736 20.2932 19.6343 20.3134 19.5317 20.3134C19.429 20.3134 19.3274 20.2932 19.2325 20.2539C19.1377 20.2146 19.0515 20.157 18.979 20.0844L12.5004 13.6049L6.02192 20.0844C5.87532 20.231 5.6765 20.3134 5.46918 20.3134C5.26187 20.3134 5.06304 20.231 4.91645 20.0844C4.76986 19.9378 4.6875 19.739 4.6875 19.5317C4.6875 19.3244 4.76986 19.1255 4.91645 18.979L11.3959 12.5004L4.91645 6.02192C4.76986 5.87532 4.6875 5.6765 4.6875 5.46918C4.6875 5.26187 4.76986 5.06304 4.91645 4.91645C5.06304 4.76986 5.26187 4.6875 5.46918 4.6875C5.6765 4.6875 5.87532 4.76986 6.02192 4.91645L12.5004 11.3959L18.979 4.91645C19.1255 4.76986 19.3244 4.6875 19.5317 4.6875C19.739 4.6875 19.9378 4.76986 20.0844 4.91645C20.231 5.06304 20.3134 5.26187 20.3134 5.46918C20.3134 5.6765 20.231 5.87532 20.0844 6.02192L13.6049 12.5004L20.0844 18.979Z" fill="#343330"/>
</svg>
