<svg width="65" height="31" viewBox="0 0 65 31" fill="none" xmlns="http://www.w3.org/2000/svg">
<path d="M37.2418 2.95097C38.6126 3.86798 39.9519 4.76259 41.289 5.65572C41.5072 5.40561 41.4457 5.18503 41.4462 4.98201C41.4487 3.8684 41.4365 2.75475 41.4398 1.64115C41.4427 0.617236 41.7267 0.345022 42.7446 0.350321C43.9597 0.356646 45.1748 0.357403 46.3899 0.362019C47.3584 0.365703 47.6751 0.664719 47.6775 1.63176C47.6839 4.14183 47.6892 6.65204 47.6653 9.16192C47.6604 9.67273 47.7954 10.0137 48.2468 10.3001C49.2386 10.9294 50.1948 11.6136 51.1653 12.2757C51.2536 12.3359 51.3435 12.3942 51.4274 12.4599C51.9014 12.8313 52.0227 13.3032 51.765 13.7622C51.5216 14.1956 51.0104 14.3386 50.4474 14.1145C49.9788 13.928 49.5909 13.6077 49.1749 13.334C49.0025 13.2206 48.8589 13.0476 48.6184 13.0372C48.4936 13.2558 48.5452 13.4893 48.5446 13.711C48.5351 17.4231 48.5311 21.1352 48.5259 24.8473C48.5259 24.9004 48.527 24.9534 48.5265 25.0064C48.516 26.23 48.516 26.2301 49.7215 26.4019C51.2022 26.6128 52.6828 26.8236 54.2892 27.0524C54.2011 26.335 54.2483 25.6598 54.2621 24.9845C54.2762 24.2963 54.2058 23.606 54.2282 22.9183C54.2445 22.4151 54.0722 22.0323 53.7167 21.6948C53.4857 21.4754 53.2536 21.248 53.0704 20.9905C52.7837 20.5878 52.8424 20.0201 53.1891 19.7304C53.5813 19.4025 53.9796 19.4955 54.3659 19.7675C54.5528 19.8991 54.6957 20.0952 54.9414 20.1566C55.1871 20.0893 55.2108 19.8528 55.3009 19.6708C55.5205 19.2272 55.6904 18.755 56.0047 18.3645C56.3745 17.905 56.9215 17.8124 57.3791 18.1076C57.8365 18.4027 57.9449 18.8552 57.6575 19.4034C57.3122 20.062 56.9751 20.7281 56.5782 21.3562C56.1906 21.9696 56.0714 22.6186 56.0818 23.3233C56.098 24.4177 56.0828 25.5126 56.0828 26.6072C56.0829 27.3647 56.0845 27.3661 56.8181 27.4994C59.2756 27.9458 61.7254 28.4263 64.1395 29.0713C64.9026 29.2752 65.1221 29.6085 64.9393 30.3374C64.7976 30.9024 64.386 31.1173 63.6747 30.9331C61.3772 30.3381 59.0539 29.8657 56.7189 29.4421C53.3838 28.837 50.0302 28.368 46.6621 27.9787C40.7062 27.2903 34.7309 27.1212 28.7442 27.2532C25.6932 27.3205 22.6514 27.5497 19.6123 27.8482C14.1538 28.3843 8.75159 29.2425 3.40056 30.4265C2.63487 30.5959 1.87971 30.8134 1.11182 30.9712C0.541006 31.0886 0.157879 30.8399 0.0538936 30.3557C-0.100352 29.6375 0.0668711 29.2814 0.6804 29.1137C3.12504 28.4453 5.61059 27.957 8.10437 27.5127C8.5531 27.4327 8.68071 27.2644 8.66108 26.8203C8.61819 25.8498 8.62717 24.8762 8.64392 23.9043C8.65058 23.5182 8.50938 23.2666 8.16765 23.0989C7.96005 22.997 7.75542 22.8846 7.56416 22.7556C6.99584 22.3723 6.83138 21.7105 7.17586 21.2376C7.4876 20.8097 8.18709 20.7713 8.72196 21.1572C8.86466 21.2602 8.99748 21.3766 9.15124 21.4999C9.62641 21.2109 9.80342 20.7014 10.127 20.3144C10.4922 19.8778 10.9899 19.7311 11.4554 19.9557C11.9457 20.1922 12.1252 20.6916 11.8368 21.2068C11.5261 21.7618 11.1667 22.2921 10.8007 22.814C10.5988 23.1019 10.4858 23.3868 10.4924 23.7444C10.5099 24.6986 10.5066 25.6535 10.4911 26.6078C10.485 26.9845 10.6147 27.1077 11.0013 27.0488C12.6224 26.8014 14.2454 26.5649 15.8709 26.3483C16.2016 26.3042 16.3415 26.1948 16.3409 25.8568C16.3334 21.6674 16.3343 17.4781 16.3313 13.2887C16.3313 13.2379 16.3082 13.1871 16.2934 13.1258C16.0208 13.0442 15.8698 13.2608 15.687 13.3741C15.3243 13.599 14.9903 13.8732 14.6155 14.0741C14.0764 14.363 13.5639 14.2425 13.2891 13.8146C12.9815 13.3359 13.0799 12.7712 13.5928 12.4187C15.0744 11.4003 16.5653 10.3947 18.0635 9.40035C22.6621 6.34851 27.2691 3.30898 31.863 0.250196C32.3464 -0.0717024 32.7412 -0.0923249 33.2242 0.242783C34.5403 1.15583 35.88 2.03561 37.2418 2.95097ZM37.9852 5.7781C36.3656 4.70916 34.7324 3.65943 33.135 2.55882C32.6921 2.25362 32.3823 2.26831 31.9538 2.55283C27.5491 5.47738 23.1363 8.38999 18.7164 11.292C18.3238 11.5498 18.2056 11.8473 18.2073 12.2994C18.2241 16.6471 18.2186 20.9949 18.22 25.3427C18.2203 26.0504 18.2234 26.0602 18.9404 26.0069C21.0936 25.8469 23.2464 25.6819 25.3989 25.513C26.1046 25.4577 26.1034 25.4495 26.1023 24.7285C26.0992 22.5723 26.0716 20.4157 26.1003 18.2599C26.1338 15.7353 27.3294 13.8495 29.5676 12.6977C31.735 11.5824 33.9352 11.7219 35.9841 13.0326C37.9874 14.314 38.8879 16.2182 38.8878 18.5617C38.8876 20.6649 38.9103 22.7681 38.898 24.8712C38.8954 25.3262 39.0395 25.4666 39.5071 25.4959C41.6797 25.6322 43.8507 25.7999 46.0193 25.9897C46.4876 26.0307 46.6214 25.8915 46.6126 25.453C46.5947 24.5533 46.6112 23.6529 46.616 22.7527C46.6345 19.2186 46.654 15.6845 46.6733 12.1503C46.6747 11.8856 46.7091 11.6088 46.4166 11.4503C45.8149 11.1244 45.7149 10.5972 45.7209 9.96686C45.7434 7.59879 45.7199 5.23032 45.7324 2.86211C45.7345 2.45229 45.6064 2.27933 45.1794 2.30921C44.7883 2.33658 44.3907 2.34637 44.0014 2.30855C43.4708 2.25699 43.2803 2.42723 43.2943 2.98053C43.3306 4.41117 43.305 5.84338 43.302 7.27496C43.301 7.73669 43.2086 8.16436 42.7518 8.40289C42.3181 8.62936 41.964 8.40827 41.6141 8.17618C40.4273 7.38892 39.238 6.60512 37.9852 5.7781ZM33.4489 25.2177C33.5067 25.3207 33.6 25.3643 33.714 25.3648C34.6954 25.3686 35.6768 25.3699 36.6581 25.3749C36.9785 25.3766 37.0353 25.1793 37.0346 24.9201C37.0302 23.3314 37.0252 21.7427 37.03 20.1541C37.0309 19.8386 36.9016 19.7096 36.5832 19.713C35.6911 19.7226 34.7986 19.7285 33.9067 19.7127C33.5292 19.706 33.3998 19.8668 33.4063 20.2189C33.4171 20.8011 33.404 21.3838 33.4057 21.9663C33.4087 23.0232 33.4153 24.0801 33.4489 25.2177ZM28.8696 25.3779C29.5994 25.3553 30.3293 25.3144 31.0591 25.3171C31.4681 25.3186 31.5735 25.1436 31.5697 24.7712C31.5546 23.2907 31.5482 21.8098 31.5679 20.3293C31.5737 19.8958 31.4189 19.7157 30.9866 19.7209C30.1671 19.7308 29.3473 19.7297 28.5277 19.7215C28.0497 19.7168 27.8555 19.9272 27.8862 20.4035C27.9835 21.9174 27.9502 23.4336 27.9146 24.9485C27.9068 25.2816 28.0229 25.4021 28.3407 25.3817C28.4827 25.3726 28.6257 25.379 28.8696 25.3779ZM31.5575 16.5497C31.5555 15.862 31.5357 15.1737 31.5579 14.4867C31.5725 14.0355 31.4322 13.9188 30.9956 14.0841C29.3784 14.696 28.4432 15.8777 28.0155 17.5005C27.9276 17.834 28.0621 17.9543 28.3909 17.9494C29.0147 17.9399 29.6387 17.9445 30.2626 17.9437C31.562 17.9422 31.562 17.9423 31.5575 16.5497ZM35.5047 17.9489C35.8429 17.9492 36.1816 17.9383 36.5191 17.9528C36.9185 17.9699 37.0622 17.8525 36.951 17.4243C36.5244 15.7808 35.5081 14.6722 33.9241 14.0561C33.7804 14.0003 33.6323 13.9161 33.4324 14.0378C33.4324 15.211 33.4327 16.4041 33.4321 17.5973C33.432 17.8783 33.5995 17.9522 33.8496 17.9496C34.3657 17.9443 34.8819 17.9485 35.5047 17.9489Z" fill="black"/>
</svg>
