<svg width="254" height="121" viewBox="0 0 254 121" fill="none" xmlns="http://www.w3.org/2000/svg">
<path d="M145.53 11.5183C150.886 15.0976 156.12 18.5895 161.345 22.0756C162.197 21.0993 161.957 20.2383 161.959 19.4459C161.969 15.0992 161.921 10.7524 161.934 6.40577C161.945 2.40921 163.055 1.3467 167.033 1.36738C171.781 1.39207 176.529 1.39503 181.277 1.41304C185.062 1.42742 186.299 2.59455 186.309 6.36911C186.334 16.1665 186.355 25.9644 186.261 35.7611C186.242 37.7549 186.77 39.0857 188.533 40.2035C192.409 42.66 196.146 45.3307 199.938 47.915C200.283 48.1499 200.635 48.3772 200.963 48.6337C202.815 50.0833 203.289 51.9253 202.281 53.7171C201.331 55.4087 199.333 55.9668 197.133 55.0921C195.302 54.3641 193.786 53.1138 192.161 52.0458C191.487 51.603 190.925 50.9277 189.986 50.8872C189.498 51.7404 189.699 52.6517 189.697 53.5173C189.66 68.0064 189.645 82.4956 189.624 96.9848C189.624 97.1918 189.629 97.3988 189.627 97.6058C189.586 102.382 189.585 102.382 194.296 103.052C200.082 103.876 205.868 104.699 212.146 105.591C211.801 102.791 211.986 100.156 212.04 97.5203C212.095 94.8338 211.82 92.1394 211.907 89.4554C211.971 87.4912 211.298 85.997 209.908 84.6796C209.006 83.8233 208.099 82.9357 207.383 81.9307C206.262 80.3587 206.492 78.1431 207.846 77.0121C209.379 75.7323 210.935 76.0955 212.445 77.1572C213.175 77.6708 213.734 78.4363 214.694 78.6756C215.654 78.4132 215.747 77.4899 216.099 76.7797C216.957 75.0479 217.621 73.205 218.849 71.6808C220.294 69.8872 222.432 69.526 224.22 70.6781C226.007 71.8299 226.431 73.596 225.308 75.7359C223.959 78.3067 222.641 80.9064 221.09 83.358C219.576 85.7523 219.11 88.2857 219.151 91.0361C219.214 95.3078 219.154 99.5813 219.154 103.854C219.155 106.81 219.161 106.816 222.028 107.336C231.631 109.079 241.204 110.954 250.638 113.472C253.62 114.268 254.477 115.569 253.763 118.414C253.209 120.619 251.601 121.458 248.821 120.739C239.843 118.417 230.765 116.573 221.64 114.919C208.607 112.557 195.503 110.727 182.341 109.207C159.067 106.52 135.718 105.86 112.323 106.375C100.401 106.638 88.5148 107.533 76.639 108.698C55.3089 110.79 34.1985 114.14 13.2884 118.761C10.2962 119.423 7.34534 120.272 4.34466 120.888C2.11409 121.346 0.616941 120.375 0.2106 118.485C-0.392145 115.682 0.261312 114.292 2.65879 113.637C12.2117 111.029 21.9245 109.123 31.6694 107.388C33.4229 107.076 33.9215 106.419 33.8448 104.686C33.6772 100.898 33.7123 97.0973 33.7778 93.304C33.8038 91.7969 33.252 90.8148 31.9166 90.1602C31.1054 89.7625 30.3058 89.3239 29.5584 88.8204C27.3376 87.3243 26.6949 84.7409 28.041 82.8952C29.2592 81.225 31.9926 81.075 34.0827 82.5815C34.6404 82.9834 35.1594 83.4376 35.7602 83.9191C37.617 82.791 38.3087 80.8021 39.5733 79.2916C41.0002 77.5874 42.945 77.0151 44.7643 77.8916C46.6803 78.8146 47.3815 80.764 46.2545 82.7749C45.0405 84.9412 43.6362 87.0112 42.2058 89.0484C41.4169 90.172 40.9753 91.284 41.001 92.6797C41.0696 96.4042 41.0564 100.131 40.9959 103.856C40.972 105.327 41.4791 105.808 42.9897 105.577C49.3244 104.612 55.6665 103.689 62.0186 102.843C63.311 102.671 63.8576 102.244 63.8552 100.925C63.8257 84.5729 63.8294 68.2209 63.8177 51.8688C63.8176 51.6704 63.7275 51.4721 63.6694 51.2328C62.6043 50.9145 62.0141 51.76 61.2998 52.2023C59.8825 53.0799 58.5776 54.1501 57.113 54.9342C55.0062 56.0622 53.0036 55.5916 51.9296 53.9216C50.7278 52.0529 51.1121 49.8491 53.1166 48.4729C58.9063 44.4978 64.732 40.5727 70.5867 36.6917C88.5567 24.7797 106.559 12.9157 124.511 0.97657C126.4 -0.279871 127.942 -0.360365 129.83 0.947637C134.973 4.51148 140.208 7.94545 145.53 11.5183ZM148.435 22.5532C142.105 18.3809 135.723 14.2836 129.481 9.98767C127.751 8.79637 126.54 8.85373 124.866 9.96427C107.653 21.3795 90.4095 32.748 73.1379 44.0753C71.6036 45.0815 71.1419 46.2425 71.1487 48.0073C71.2141 64.9774 71.1925 81.9479 71.1982 98.9182C71.1992 101.681 71.2114 101.719 74.0134 101.511C82.4273 100.886 90.8399 100.242 99.2512 99.5831C102.009 99.367 102.004 99.3353 102 96.5208C101.988 88.1047 101.88 79.6873 101.992 71.2727C102.123 61.4182 106.795 54.0577 115.541 49.5621C124.011 45.2087 132.608 45.7533 140.615 50.869C148.443 55.8706 151.962 63.3035 151.961 72.4507C151.961 80.6598 152.05 88.8692 152.002 97.0779C151.991 98.8538 152.554 99.4018 154.382 99.5163C162.872 100.048 171.355 100.703 179.829 101.444C181.659 101.604 182.182 101.06 182.148 99.3488C182.078 95.8371 182.142 92.3225 182.161 88.8091C182.233 75.0145 182.31 61.22 182.385 47.4255C182.39 46.3921 182.525 45.3117 181.382 44.6933C179.031 43.4209 178.64 41.3632 178.663 38.9029C178.751 29.6598 178.659 20.4151 178.708 11.1714C178.716 9.57185 178.216 8.89675 176.547 9.01337C175.019 9.12021 173.465 9.15841 171.944 9.01078C169.87 8.80955 169.126 9.47402 169.181 11.6337C169.323 17.2178 169.223 22.808 169.211 28.3958C169.207 30.1981 168.846 31.8673 167.061 32.7984C165.366 33.6823 163.982 32.8194 162.615 31.9135C157.977 28.8406 153.33 25.7813 148.435 22.5532ZM130.708 98.4303C130.934 98.8324 131.298 99.0028 131.744 99.0045C135.579 99.0194 139.414 99.0243 143.249 99.0441C144.501 99.0506 144.722 98.2807 144.72 97.2686C144.703 91.0678 144.683 84.8668 144.702 78.666C144.705 77.4345 144.2 76.9311 142.956 76.9444C139.47 76.9817 135.982 77.0047 132.497 76.9432C131.022 76.9171 130.516 77.5445 130.542 78.9188C130.584 81.1915 130.532 83.4657 130.539 85.7393C130.551 89.8648 130.577 93.9902 130.708 98.4303ZM112.813 99.0557C115.665 98.9673 118.518 98.8077 121.369 98.8182C122.968 98.8241 123.379 98.1412 123.365 96.6877C123.306 90.9088 123.281 85.1284 123.358 79.35C123.38 77.6579 122.775 76.9549 121.086 76.9753C117.884 77.0139 114.68 77.0095 111.478 76.9776C109.61 76.959 108.851 77.7802 108.971 79.6396C109.351 85.5487 109.221 91.4665 109.082 97.3796C109.051 98.6797 109.505 99.1503 110.747 99.0707C111.301 99.0351 111.86 99.06 112.813 99.0557ZM123.317 64.5971C123.309 61.9128 123.232 59.2263 123.319 56.545C123.376 54.7838 122.827 54.3284 121.121 54.9733C114.802 57.3618 111.147 61.9742 109.476 68.3086C109.132 69.6099 109.658 70.0799 110.943 70.0604C113.381 70.0234 115.819 70.0414 118.257 70.0385C123.334 70.0323 123.334 70.0328 123.317 64.5971ZM138.741 70.0586C140.063 70.0598 141.386 70.0172 142.705 70.0737C144.266 70.1406 144.828 69.6823 144.393 68.011C142.726 61.596 138.755 57.269 132.565 54.8643C132.004 54.6462 131.424 54.3178 130.643 54.7929C130.643 59.3721 130.645 64.0291 130.642 68.6861C130.642 69.783 131.297 70.0713 132.274 70.0614C134.291 70.0408 136.308 70.057 138.741 70.0586Z" fill="black"/>
</svg>
